<svg width="24" height="24" viewBox="0 0 24 24" fill="none" xmlns="http://www.w3.org/2000/svg">
<path d="M12.5 10C12.9596 10 13.4148 9.90947 13.8394 9.73358C14.264 9.55769 14.6499 9.29988 14.9749 8.97487C15.2999 8.64987 15.5577 8.26403 15.7336 7.83939C15.9095 7.41475 16 6.95963 16 6.5C16 6.04037 15.9095 5.58525 15.7336 5.16061C15.5577 4.73597 15.2999 4.35013 14.9749 4.02513C14.6499 3.70012 14.264 3.44231 13.8394 3.26642C13.4148 3.09053 12.9596 3 12.5 3C11.5717 3 10.6815 3.36875 10.0251 4.02513C9.36875 4.6815 9 5.57174 9 6.5C9 7.42826 9.36875 8.3185 10.0251 8.97487C10.6815 9.63125 11.5717 10 12.5 10Z" fill="#FF006F" stroke="#FF006F" stroke-width="2" stroke-linecap="round" stroke-linejoin="round"/>
<path d="M5 20.4V21H20V20.4C20 18.16 20 17.04 19.564 16.184C19.1805 15.4314 18.5686 14.8195 17.816 14.436C16.96 14 15.84 14 13.6 14H11.4C9.16 14 8.04 14 7.184 14.436C6.43139 14.8195 5.81949 15.4314 5.436 16.184C5 17.04 5 18.16 5 20.4Z" fill="#FF006F" stroke="#FF006F" stroke-width="2" stroke-linecap="round" stroke-linejoin="round"/>
</svg>
