<svg width="24" height="24" viewBox="0 0 24 24" fill="none" xmlns="http://www.w3.org/2000/svg">
<path d="M19.9999 6C20.2547 6.00028 20.4999 6.09788 20.6852 6.27285C20.8706 6.44782 20.9821 6.68695 20.997 6.94139C21.012 7.19584 20.9292 7.44638 20.7656 7.64183C20.602 7.83729 20.37 7.9629 20.1169 7.993L19.9999 8H19.9189L18.9999 19C18.9999 19.7652 18.7075 20.5015 18.1826 21.0583C17.6576 21.615 16.9398 21.9501 16.1759 21.995L15.9999 22H7.99987C6.40187 22 5.09587 20.751 5.00787 19.25L5.00287 19.083L4.07987 8H3.99987C3.74499 7.99972 3.49984 7.90212 3.3145 7.72715C3.12916 7.55218 3.01763 7.31305 3.0027 7.05861C2.98776 6.80416 3.07054 6.55362 3.23413 6.35817C3.39772 6.16271 3.62977 6.0371 3.88287 6.007L3.99987 6H19.9999ZM9.99987 10C9.73465 10 9.4803 10.1054 9.29276 10.2929C9.10523 10.4804 8.99987 10.7348 8.99987 11V17C8.99987 17.2652 9.10523 17.5196 9.29276 17.7071C9.4803 17.8946 9.73465 18 9.99987 18C10.2651 18 10.5194 17.8946 10.707 17.7071C10.8945 17.5196 10.9999 17.2652 10.9999 17V11C10.9999 10.7348 10.8945 10.4804 10.707 10.2929C10.5194 10.1054 10.2651 10 9.99987 10ZM13.9999 10C13.7347 10 13.4803 10.1054 13.2928 10.2929C13.1052 10.4804 12.9999 10.7348 12.9999 11V17C12.9999 17.2652 13.1052 17.5196 13.2928 17.7071C13.4803 17.8946 13.7347 18 13.9999 18C14.2651 18 14.5194 17.8946 14.707 17.7071C14.8945 17.5196 14.9999 17.2652 14.9999 17V11C14.9999 10.7348 14.8945 10.4804 14.707 10.2929C14.5194 10.1054 14.2651 10 13.9999 10ZM13.9999 2C14.5303 2 15.039 2.21071 15.4141 2.58579C15.7892 2.96086 15.9999 3.46957 15.9999 4C15.9996 4.25488 15.902 4.50003 15.727 4.68537C15.5521 4.8707 15.3129 4.98223 15.0585 4.99717C14.804 5.01211 14.5535 4.92933 14.358 4.76574C14.1626 4.60214 14.037 4.3701 14.0069 4.117L13.9999 4H9.99987L9.99287 4.117C9.96277 4.3701 9.83715 4.60214 9.6417 4.76574C9.44625 4.92933 9.19571 5.01211 8.94126 4.99717C8.68682 4.98223 8.44769 4.8707 8.27272 4.68537C8.09775 4.50003 8.00015 4.25488 7.99987 4C7.99971 3.49542 8.19028 3.00943 8.53337 2.63945C8.87646 2.26947 9.34671 2.04284 9.84987 2.005L9.99987 2H13.9999Z" fill="#330914"/>
</svg>
