<svg width="24" height="24" viewBox="0 0 24 24" fill="none" xmlns="http://www.w3.org/2000/svg">
<rect width="24" height="24" rx="12" fill="#FF008C"/>
<path fill-rule="evenodd" clip-rule="evenodd" d="M17.7802 7.25461C17.921 7.41768 18 7.63883 18 7.86941C18 8.1 17.921 8.32114 17.7802 8.48422L10.6497 16.7454C10.5089 16.9084 10.318 17 10.119 17C9.91997 17 9.72909 16.9084 9.58834 16.7454L6.2107 12.8322C6.07397 12.6682 5.99832 12.4485 6.00003 12.2205C6.00174 11.9925 6.08068 11.7744 6.21984 11.6132C6.35901 11.452 6.54726 11.3605 6.74406 11.3585C6.94087 11.3565 7.13047 11.4442 7.27203 11.6026L10.119 14.901L16.7189 7.25461C16.8597 7.09158 17.0505 7 17.2496 7C17.4486 7 17.6395 7.09158 17.7802 7.25461Z" fill="white"/>
</svg>
