<svg width="24" height="24" viewBox="0 0 24 24" fill="none" xmlns="http://www.w3.org/2000/svg">
<g clip-path="url(#clip0_136_3052)">
<path fill-rule="evenodd" clip-rule="evenodd" d="M16.0599 10.9401C16.3408 11.2213 16.4986 11.6026 16.4986 12.0001C16.4986 12.3976 16.3408 12.7788 16.0599 13.0601L10.4039 18.7181C10.1225 18.9994 9.74089 19.1573 9.34304 19.1572C8.94518 19.1571 8.56365 18.999 8.28239 18.7176C8.00113 18.4362 7.84317 18.0546 7.84326 17.6567C7.84336 17.2589 8.00149 16.8774 8.28289 16.5961L12.8789 12.0001L8.28289 7.4041C8.00952 7.12132 7.85814 6.74249 7.86137 6.34919C7.8646 5.9559 8.02218 5.5796 8.30016 5.30136C8.57815 5.02311 8.95429 4.86518 9.34759 4.86158C9.74088 4.85798 10.1199 5.00899 10.4029 5.2821L16.0609 10.9391L16.0599 10.9401Z" fill="#726467"/>
</g>
<defs>
<clipPath id="clip0_136_3052">
<rect width="24" height="24" fill="white" transform="matrix(0 -1 1 0 0 24)"/>
</clipPath>
</defs>
</svg>
