<svg width="24" height="24" viewBox="0 0 24 24" fill="none" xmlns="http://www.w3.org/2000/svg">
<g clip-path="url(#clip0_136_3053)">
<path fill-rule="evenodd" clip-rule="evenodd" d="M7.94011 13.0599C7.65921 12.7787 7.50143 12.3974 7.50143 11.9999C7.50143 11.6024 7.65921 11.2212 7.94011 10.9399L13.5961 5.2819C13.8775 5.00064 14.2591 4.84268 14.657 4.84277C15.0548 4.84287 15.4363 5.00101 15.7176 5.2824C15.9989 5.56379 16.1568 5.9454 16.1567 6.34325C16.1566 6.74111 15.9985 7.12264 15.7171 7.4039L11.1211 11.9999L15.7171 16.5959C15.9905 16.8787 16.1419 17.2575 16.1386 17.6508C16.1354 18.0441 15.9778 18.4204 15.6998 18.6986C15.4219 18.9769 15.0457 19.1348 14.6524 19.1384C14.2591 19.142 13.8801 18.991 13.5971 18.7179L7.93911 13.0609L7.94011 13.0599Z" fill="#726467"/>
</g>
<defs>
<clipPath id="clip0_136_3053">
<rect width="24" height="24" fill="white" transform="matrix(0 1 -1 0 24 0)"/>
</clipPath>
</defs>
</svg>
