<svg width="24" height="24" viewBox="0 0 24 24" fill="none" xmlns="http://www.w3.org/2000/svg">
<path fill-rule="evenodd" clip-rule="evenodd" d="M15.9917 3.34251C17.3257 2.56551 18.9997 3.52651 18.9997 5.07051V8.32951C19.3937 8.32951 19.7838 8.4071 20.1477 8.55787C20.5117 8.70863 20.8424 8.92961 21.121 9.20819C21.3996 9.48676 21.6206 9.81748 21.7713 10.1815C21.9221 10.5454 21.9997 10.9355 21.9997 11.3295C21.9997 11.7235 21.9221 12.1136 21.7713 12.4776C21.6206 12.8415 21.3996 13.1723 21.121 13.4508C20.8424 13.7294 20.5117 13.9504 20.1477 14.1011C19.7838 14.2519 19.3937 14.3295 18.9997 14.3295V17.3295C18.9997 18.9775 17.1187 19.9185 15.7997 18.9295L13.7397 17.3835C12.6385 16.5579 11.3564 16.0067 9.99969 15.7755V18.6195C9.9998 19.2733 9.76358 19.905 9.33459 20.3983C8.90559 20.8916 8.31274 21.2132 7.6653 21.3038C7.01787 21.3944 6.3595 21.2479 5.81157 20.8914C5.26363 20.5348 4.86306 19.9922 4.68369 19.3635L3.11369 13.8675C2.5487 13.2003 2.18102 12.3887 2.05197 11.524C1.92292 10.6593 2.03762 9.77574 2.38317 8.97265C2.72872 8.16955 3.29143 7.47875 4.00804 6.9779C4.72465 6.47706 5.56675 6.18602 6.43969 6.13751L9.45769 5.96951C10.9343 5.88749 12.3704 5.45598 13.6477 4.71051L15.9917 3.34251ZM5.63369 15.4075L6.60669 18.8145C6.65351 18.9794 6.75843 19.1218 6.90206 19.2154C7.04569 19.309 7.21834 19.3475 7.38812 19.3237C7.5579 19.3 7.71334 19.2156 7.82575 19.0861C7.93816 18.9567 7.99994 18.7909 7.99969 18.6195V15.6095L6.43969 15.5225C6.16834 15.5061 5.89878 15.4677 5.63369 15.4075ZM19.9997 11.3295C19.9997 11.0643 19.8943 10.8099 19.7068 10.6224C19.5193 10.4349 19.2649 10.3295 18.9997 10.3295V12.3295C19.2649 12.3295 19.5193 12.2242 19.7068 12.0366C19.8943 11.8491 19.9997 11.5947 19.9997 11.3295Z" fill="#330914"/>
</svg>
