<svg width="24" height="24" viewBox="0 0 24 24" fill="none" xmlns="http://www.w3.org/2000/svg">
<path d="M8.75736 19.4178C9.14415 19.913 9.63704 20.3128 10.1988 20.5868C10.7605 20.8609 11.3764 21.0022 12 21C12.6236 21.0022 13.2395 20.8609 13.8012 20.5868C14.363 20.3128 14.8558 19.913 15.2426 19.4178C13.0907 19.7127 10.9093 19.7127 8.75736 19.4178ZM18 9.29999V9.93359C18 10.6941 18.2133 11.4375 18.6151 12.0702L19.5999 13.6209C20.4986 15.0375 19.8124 16.9626 18.2488 17.4099C14.1633 18.5814 9.83672 18.5814 5.75115 17.4099C4.18761 16.9626 3.50139 15.0375 4.40005 13.6209L5.38493 12.0702C5.78779 11.4323 6.00156 10.6908 6.00093 9.93359V9.29999C6.00093 5.8206 8.68713 3 12 3C15.3129 3 18 5.8206 18 9.29999Z" fill="#FF008C"/>
</svg>
