<svg width="24" height="24" viewBox="0 0 24 24" fill="none" xmlns="http://www.w3.org/2000/svg">
<path d="M20.245 14.75C21.18 15.364 21.137 16.787 20.116 17.326L12.935 21.122C12.6469 21.2744 12.3259 21.354 12 21.354C11.6741 21.354 11.3531 21.2744 11.065 21.122L3.88397 17.326C2.86397 16.786 2.81997 15.364 3.75497 14.75L3.81797 14.79L11.065 18.622C11.3531 18.7744 11.6741 18.854 12 18.854C12.3259 18.854 12.6469 18.7744 12.935 18.622L20.116 14.826C20.1602 14.8023 20.2026 14.777 20.245 14.75ZM20.245 10.75C20.4515 10.8868 20.6209 11.0726 20.738 11.2908C20.8552 11.509 20.9166 11.7528 20.9166 12.0005C20.9166 12.2482 20.8552 12.492 20.738 12.7102C20.6209 12.9284 20.4515 13.1142 20.245 13.251L20.116 13.326L12.935 17.122C12.6738 17.2601 12.3853 17.3387 12.0901 17.352C11.795 17.3653 11.5005 17.3131 11.228 17.199L11.066 17.122L3.88397 13.326C2.86397 12.786 2.81997 11.364 3.75497 10.75L3.81797 10.79L11.065 14.622C11.3263 14.7603 11.615 14.8389 11.9103 14.8522C12.2057 14.8655 12.5003 14.8132 12.773 14.699L12.935 14.622L20.116 10.826C20.1602 10.8023 20.2026 10.777 20.245 10.75ZM12.935 2.87801L20.116 6.67401C21.182 7.23701 21.182 8.76401 20.116 9.32601L12.935 13.123C12.6469 13.2754 12.3259 13.355 12 13.355C11.6741 13.355 11.3531 13.2754 11.065 13.123L3.88397 9.32601C2.81797 8.76301 2.81797 7.23701 3.88397 6.67401L11.065 2.87801C11.3531 2.72564 11.6741 2.646 12 2.646C12.3259 2.646 12.6469 2.72564 12.935 2.87801Z" fill="#330914"/>
</svg>
