<svg width="24" height="24" viewBox="0 0 24 24" fill="none" xmlns="http://www.w3.org/2000/svg">
<path d="M10.5 21.1361C10.0667 21.1361 9.671 21.0118 9.313 20.7632C8.955 20.5145 8.709 20.1811 8.575 19.7629L8 17.908C7.9 17.5868 7.746 17.2618 7.538 16.9329C7.33 16.604 7.059 16.2625 6.725 15.9086C6.15833 15.3144 5.72933 14.6399 5.438 13.885C5.14667 13.1302 5.00067 12.3353 5 11.5002C5 10.6811 5.146 9.89418 5.438 9.13936C5.73 8.38455 6.159 7.70201 6.725 7.09173C7.05833 6.72236 7.32933 6.37707 7.538 6.05587C7.74667 5.73468 7.90067 5.41348 8 5.09228L8.575 3.23737C8.70833 2.81982 8.95433 2.48674 9.313 2.23813C9.67167 1.98952 10.0673 1.8649 10.5 1.86426H13.5C13.9333 1.86426 14.3293 1.98888 14.688 2.23813C15.0467 2.48738 15.2923 2.82046 15.425 3.23737L16 5.09228C16.1 5.41348 16.2543 5.73885 16.463 6.0684C16.6717 6.39795 16.9423 6.73906 17.275 7.09173C17.8417 7.68595 18.271 8.36046 18.563 9.11527C18.855 9.87009 19.0007 10.665 19 11.5002C19 12.3192 18.8543 13.1061 18.563 13.861C18.2717 14.6158 17.8423 15.2983 17.275 15.9086C16.9417 16.278 16.671 16.6232 16.463 16.9444C16.255 17.2656 16.1007 17.5868 16 17.908L15.425 19.7629C15.2917 20.1805 15.046 20.5139 14.688 20.7632C14.33 21.0124 13.934 21.1367 13.5 21.1361H10.5ZM15.538 14.9093C16.5127 13.9695 17 12.8331 17 11.5002C17 10.1672 16.5123 9.03112 15.537 8.09194C14.5617 7.15276 13.3827 6.68285 12 6.68221C10.6173 6.68157 9.43833 7.15148 8.463 8.09194C7.48767 9.03241 7 10.1685 7 11.5002C7 12.8318 7.48767 13.9682 8.463 14.9093C9.43833 15.8504 10.6173 16.32 12 16.3181C13.3827 16.3162 14.562 15.8472 15.538 14.9093Z" fill="#330914"/>
<path fill-rule="evenodd" clip-rule="evenodd" d="M14.8901 9.1273C14.9605 9.20884 15 9.31941 15 9.43471C15 9.55 14.9605 9.66057 14.8901 9.74211L11.3248 13.8727C11.2545 13.9542 11.159 14 11.0595 14C10.96 14 10.8645 13.9542 10.7942 13.8727L9.10535 11.9161C9.03699 11.8341 8.99916 11.7243 9.00001 11.6103C9.00087 11.4963 9.04034 11.3872 9.10992 11.3066C9.1795 11.226 9.27363 11.1803 9.37203 11.1793C9.47043 11.1783 9.56523 11.2221 9.63601 11.3013L11.0595 12.9505L14.3595 9.1273C14.4298 9.04579 14.5253 9 14.6248 9C14.7243 9 14.8197 9.04579 14.8901 9.1273Z" fill="#FFBAE0"/>
</svg>
