<svg width="24" height="24" viewBox="0 0 24 24" fill="none" xmlns="http://www.w3.org/2000/svg">
<path d="M12.9901 12.9899L12.9901 19.9196C12.9901 20.1789 12.8899 20.4087 12.6895 20.609C12.4892 20.8094 12.2594 20.9095 12.0001 20.9095C11.7408 20.9095 11.511 20.8094 11.3107 20.609C11.1103 20.4087 11.0102 20.1789 11.0102 19.9196L11.0102 12.9899L4.08052 12.9899C3.82125 12.9899 3.59144 12.8898 3.39109 12.6894C3.19074 12.4891 3.09057 12.2593 3.09057 12C3.09057 11.7407 3.19074 11.5109 3.39109 11.3106C3.59144 11.1102 3.82125 11.0101 4.08052 11.0101L11.0102 11.0101L11.0102 4.0804C11.0102 3.82113 11.1103 3.59132 11.3107 3.39097C11.511 3.19063 11.7408 3.09046 12.0001 3.09046C12.2594 3.09046 12.4892 3.19063 12.6895 3.39097C12.8899 3.59132 12.9901 3.82113 12.9901 4.0804L12.9901 11.0101H19.9197C20.179 11.0101 20.4088 11.1102 20.6091 11.3106C20.8095 11.5109 20.9097 11.7407 20.9097 12C20.9097 12.2593 20.8095 12.4891 20.6091 12.6894C20.4088 12.8898 20.179 12.9899 19.9197 12.9899H12.9901Z" fill="#330914"/>
</svg>
